<?xml version="1.0" encoding="UTF-8" standalone="no"?>
<!-- Created with Inkscape (http://www.inkscape.org/) -->

<svg
   width="100mm"
   height="100mm"
   viewBox="0 0 100 100"
   version="1.1"
   id="svg1"
   xml:space="preserve"
   xmlns="http://www.w3.org/2000/svg"
   xmlns:svg="http://www.w3.org/2000/svg"><defs
     id="defs1"><rect
       x="97.05423"
       y="249.38956"
       width="384.43503"
       height="110.5278"
       id="rect5" /></defs><g
     id="layer4"
     transform="matrix(0.8006994,0,0,0.8006994,-29.948434,-75.206598)"><path
       d="m 60.387327,170.92436 -0.13232,-0.15158 a 7.2794293,7.2794293 0 0 1 -2.295802,3.70415 c -2.098076,1.83492 -16.041755,13.27814 -19.74516,16.31354 l -0.02641,0.0229 a 1.0375556,1.0375556 0 0 0 -0.03653,1.52485 l 10.459486,10.08353 a 0.7312015,0.7312015 0 0 0 1.139515,-0.19083 L 63.215853,177.4807 a 8.479913,8.479913 0 0 1 1.302936,-1.78851 l 0.02174,-0.019 z m 58.232743,-42.53633 -20.806664,19.7654 -6.78671,-7.76057 23.362914,-20.43118 4.37808,5.00634 a 2.4809503,2.4809503 0 0 1 -0.14762,3.42001 z m -35.614376,37.75784 a 3.6782249,3.6782249 0 0 1 -2.671038,0.99559 c -0.185638,-1.48314 -0.424594,-3.28892 -0.424594,-3.28892 l 2.956155,-2.58512 1.139261,1.30242 c 0.731452,0.83637 0.266859,2.46861 -0.999784,3.57603 z m 33.849066,-52.04244 1.25924,-1.10124 a 0.63862872,0.63862872 0 0 1 0.90104,0.0602 l 1.41451,1.61743 1.4708,-1.28615 2.10177,2.40319 15.72503,-13.75187 -0.31919,-0.36535 8.53645,-7.46556 2.03906,2.331347 -8.53693,7.465563 -0.32784,-0.37522 -15.72503,13.75211 0.71664,0.81958 -3.66514,3.20524 -5.75456,-6.58032 a 0.63862872,0.63862872 0 0 1 0.16415,-0.72898 z m -43.358141,66.8689 c 0.52754,0.22982 7.358175,-1.3876 7.663546,-1.65471 0.112074,-0.22093 -0.523103,-8.20763 -0.732439,-11.06134 a 4.817734,4.817734 0 0 0 3.291147,-1.27084 c 1.742345,-1.52362 2.237792,-3.81894 1.102729,-5.11668 l -1.139013,-1.30244 0.653682,-0.57172 0.857349,0.98053 a 0.95781965,0.95781965 0 0 0 1.516469,-0.10887 l 0.730705,-1.1437 10.298552,11.77649 6.406284,-8.32538 -16.974161,-19.40943 -22.091573,19.31932 -1.344892,-1.53794 a 0.77588328,0.77588328 0 0 0 -1.092607,-0.0709 l -1.533502,1.34094 a 0.77588328,0.77588328 0 0 0 -0.07329,1.09458 l 7.038992,8.0489 c 5.06953,-4.24255 6.323831,-1.34835 6.790643,-0.47989 0.466566,0.86845 -1.597189,9.39181 -1.366376,9.4955 z"
       fill="#000000"
       fill-opacity="1"
       id="path1"
       style="stroke-width:0.24686" /></g><g
     id="layer5"><text
       xml:space="preserve"
       transform="matrix(0.33672837,0,0,0.33672837,-6.5122921,-10.688307)"
       id="text5"
       style="font-size:85.3333px;white-space:pre;shape-inside:url(#rect5);display:inline;fill:#000000;fill-opacity:1;stroke:#000000;stroke-opacity:1"><tspan
         x="97.054688"
         y="327.03132"
         id="tspan2">300m</tspan></text></g></svg>
