<?xml version="1.0" encoding="UTF-8" standalone="no"?>
<!-- Created with Inkscape (http://www.inkscape.org/) -->

<svg
   width="100mm"
   height="100mm"
   viewBox="0 0 100 100"
   version="1.1"
   id="svg1"
   xml:space="preserve"
   xmlns="http://www.w3.org/2000/svg"
   xmlns:svg="http://www.w3.org/2000/svg"><defs
     id="defs1"><rect
       x="97.05423"
       y="249.38956"
       width="384.43503"
       height="110.5278"
       id="rect5" /></defs><g
     id="layer4"
     transform="matrix(0.8006994,0,0,0.8006994,-29.948434,-75.206598)"><path
       d="m 43.768374,102.66885 v 8.59737 a 6.3783104,6.3783104 0 0 0 2.161117,4.78896 h 71.569799 v -13.33659 a 1.9319875,1.9319875 0 0 0 -1.89072,-1.58168 H 94.041853 A 5.1143958,5.1143958 0 0 0 89.233845,97.758709 H 73.637187 c 1.642533,6.615381 -3.362854,13.015651 -10.17905,13.015651 -6.816196,0 -11.821584,-6.40054 -10.178521,-13.015121 h -4.620683 c -2.704836,0.009 -4.892146,2.2053 -4.890823,4.910141 z m 108.225166,0.41116 0.70115,-0.89429 2.08915,-3.035831 c 0.87233,-1.26153 2.36538,-1.26153 3.23744,0 l 2.0148,3.916361 h 2.3376 v 7.76394 h -40.4585 v -7.75018 H 151.9991 Z M 42.821695,171.288 c 4.786313,4.12671 13.581063,3.68644 18.955544,0.36142 5.614458,-3.47318 1.087437,-8.46481 8.501062,-17.88741 2.274094,-2.89243 8.310563,-11.23051 13.618105,-18.80129 1.633537,-2.33204 4.77176,-0.93187 11.536361,1.7481 1.68355,0.36777 3.83117,0.4736 4.915433,0.56409 5.03132,0 11.13525,-4.67969 11.69935,-8.57859 0.57494,-3.97298 -1.78779,-5.12974 0.74824,-5.81898 0.88053,-0.23944 2.45004,-1.33482 2.55852,-2.39897 h -10.85506 c 2.25213,1.21443 3.74253,3.31205 3.74253,5.68589 0,3.75338 -3.70152,6.7945 -8.280143,6.7945 -4.57887,0 -8.279867,-3.03583 -8.279867,-6.7945 0,-2.3794 1.490398,-4.47146 3.742527,-5.68589 H 53.055778 c 6.135688,5.34617 2.93423,11.59192 0.742421,14.66109 l -13.800137,19.37808 c -3.85101,5.41126 -1.47029,13.07041 2.823633,16.77246 z m 5.593292,-10.12824 c 0,-3.14008 3.795977,-4.71223 6.016625,-2.49185 2.219854,2.21986 0.6477,6.01663 -2.492375,6.01663 -1.94654,0 -3.52425,-1.57798 -3.52425,-3.52425 z m 49.79458,-30.99065 c -2.5736,-1.85526 -2.05845,-6.66856 -1.32768,-9.68719 h 3.386673 c -2.004223,2.26219 -3.030013,7.21254 -2.059253,9.68772 z M 69.527149,100.26749 c 0,5.40994 -6.5405,8.11848 -10.365581,4.29339 -3.824817,-3.82481 -1.116542,-10.365311 4.293394,-10.365311 3.353329,0 6.072187,2.71886 6.072187,6.072191 z"
       fill="#000000"
       fill-opacity="1"
       id="path1"
       style="stroke-width:0.264583" /></g><g
     id="layer5"><text
       xml:space="preserve"
       transform="matrix(0.33672837,0,0,0.33672837,-34.028974,-10.688307)"
       id="text5"
       style="font-size:85.3333px;white-space:pre;shape-inside:url(#rect5);display:inline;fill:#000000;fill-opacity:1;stroke:#000000;stroke-opacity:1"><tspan
         x="97.054688"
         y="327.03132"
         id="tspan1">50/25m</tspan></text></g></svg>
